# xmcd
#
# Track frame offsets:
#	150
#	21169
#	37734
#	53953
#	70114
#	88719
#	103108
#	118571
#	133710
#	153607
#	175349
#	189455
#	206936
#	220885
#	240844
#	257702
#	277945
#	299578
#	326416
#
# Disc length: 4548 seconds
#
# Revision: 1
# Processed by: cddbd v1.5.2PL0 Copyright (c) Steve Scherf et al.
# Submitted via: audiograbber 1.83.01
#
DISCID=1711c213
DTITLE=B.B. King - Ladies and Gentlemen.... Mr. B.B. King [CD 10) - Key To The Hi
DTITLE=ghway (2000-2008)
DYEAR=2012
DGENRE=Blues
TTITLE0=Ten Long Years [with Eric Clapton]
TTITLE1=Key To The Highway [with Eric Clapton]
TTITLE2=I Got To Leave This Woman
TTITLE3=Monday Woman
TTITLE4=Don't Go No Farther
TTITLE5=You're On Top
TTITLE6=Back Door Santa
TTITLE7=Exactly Like You
TTITLE8=Sinner's Prayer [with Ray Charles]
TTITLE9=Early In The Morning [with Van Morrison]
TTITLE10=Rock This House [with Elton John]
TTITLE11=You Have A Way
TTITLE12=Everybody Loves You
TTITLE13=Key To The Highway [live]
TTITLE14=Midnight Blues
TTITLE15=Get These Blues Off Me
TTITLE16=See That My Grave Is Kept Clean
TTITLE17=Waiting For Your Call
TTITLE18=Haunted House
EXTD=
EXTT0=
EXTT1=
EXTT2=
EXTT3=
EXTT4=
EXTT5=
EXTT6=
EXTT7=
EXTT8=
EXTT9=
EXTT10=
EXTT11=
EXTT12=
EXTT13=
EXTT14=
EXTT15=
EXTT16=
EXTT17=
EXTT18=
PLAYORDER=
